<?xml version="1.0" standalone="no"?>
<!DOCTYPE svg PUBLIC "-//W3C//DTD SVG 20010904//EN"
 "http://www.w3.org/TR/2001/REC-SVG-20010904/DTD/svg10.dtd">
<svg version="1.0" xmlns="http://www.w3.org/2000/svg"
 width="1000.000000pt" height="1000.000000pt" viewBox="0 0 1000.000000 1000.000000"
 preserveAspectRatio="xMidYMid meet">
<metadata>
Created by potrace 1.11, written by Peter Selinger 2001-2013
</metadata>
<g transform="translate(0.000000,1000.000000) scale(0.100000,-0.100000)"
fill="#000000" stroke="none">
<path d="M1134 9915 c-10 -8 -31 -15 -45 -15 -15 0 -37 -8 -50 -19 -13 -10
-40 -21 -60 -25 -21 -4 -42 -13 -48 -20 -7 -8 -27 -17 -45 -20 -19 -4 -39 -13
-46 -21 -7 -8 -21 -15 -31 -15 -11 0 -27 -9 -36 -20 -10 -11 -23 -20 -30 -20
-7 0 -32 -14 -55 -30 -24 -17 -66 -46 -94 -65 -61 -42 -235 -214 -255 -253 -8
-15 -31 -49 -51 -75 -21 -27 -38 -54 -38 -61 0 -7 -9 -21 -20 -31 -11 -10 -20
-27 -20 -37 0 -11 -9 -31 -20 -45 -11 -14 -20 -33 -20 -42 0 -9 -7 -26 -15
-37 -8 -12 -19 -43 -25 -70 -6 -27 -17 -65 -24 -84 -11 -26 -17 -131 -25 -400
-21 -694 -23 -1272 -12 -2955 6 -929 12 -2151 13 -2715 1 -564 5 -1211 8
-1438 5 -380 6 -414 23 -423 10 -6 17 -22 17 -38 0 -15 9 -36 20 -46 11 -10
20 -29 20 -42 0 -13 9 -31 20 -40 11 -10 20 -27 20 -39 0 -11 9 -29 20 -39 11
-10 20 -23 20 -30 0 -7 9 -20 20 -30 11 -10 20 -22 20 -27 0 -32 225 -273 320
-343 79 -58 120 -85 129 -85 4 0 16 -9 26 -20 10 -11 28 -20 39 -20 12 0 29
-9 39 -20 9 -11 27 -20 40 -20 13 0 32 -9 42 -20 10 -11 31 -20 46 -20 16 0
32 -7 38 -17 9 -17 211 -18 3995 -21 3978 -2 3986 -2 4003 18 10 11 29 20 44
20 14 0 34 9 44 20 10 11 29 20 42 20 13 0 31 9 40 20 10 11 27 20 39 20 11 0
29 9 39 20 10 11 23 20 30 20 7 0 20 9 30 20 10 11 22 20 27 20 17 0 123 88
212 176 98 99 160 175 197 245 13 24 32 50 42 57 9 7 17 23 17 35 0 13 9 30
20 40 11 9 20 27 20 40 0 13 9 32 20 42 11 10 20 31 20 46 0 16 7 32 18 38 16
9 17 210 17 4001 0 3791 -1 3992 -17 4001 -10 6 -18 20 -18 33 0 13 -9 35 -20
49 -11 14 -20 35 -20 46 0 12 -9 29 -20 38 -11 10 -20 24 -20 33 -1 16 -52 99
-122 194 -74 101 -313 326 -346 326 -5 0 -17 9 -27 20 -10 11 -22 20 -27 20
-6 0 -21 9 -35 20 -14 11 -33 20 -42 20 -9 0 -24 9 -34 20 -9 11 -26 20 -38
20 -11 0 -32 9 -46 20 -14 11 -36 20 -49 20 -13 0 -27 8 -33 18 -9 16 -46 17
-483 22 -260 3 -1051 6 -1758 8 -707 1 -2003 7 -2880 12 -2364 14 -2732 13
-2756 -5z m2141 -935 c171 -10 285 -37 411 -96 401 -188 637 -507 773 -1049
42 -167 63 -453 55 -730 -8 -252 -40 -433 -120 -675 -108 -326 -292 -577 -539
-735 -88 -56 -254 -132 -337 -154 -223 -60 -525 -60 -738 -1 -182 50 -375 160
-519 294 -154 145 -307 395 -372 609 -77 250 -109 484 -109 793 0 206 4 261
31 469 16 123 84 384 108 420 4 6 18 37 31 70 77 193 216 381 377 511 50 41
95 74 98 74 4 0 19 9 34 19 49 35 220 119 284 139 99 32 119 35 362 50 11 1
88 -3 170 -8z m4118 -7 c7 -12 17 -1228 19 -2361 2 -742 0 -1005 -9 -1010 -6
-4 -187 -6 -402 -4 l-391 2 -1 1313 c-1 721 -2 1328 -3 1347 -1 27 -6 35 -26
41 -14 4 -123 7 -242 8 l-218 1 0 316 c0 198 4 322 10 335 10 18 28 19 635 19
343 0 626 -3 628 -7z m-18 -4583 c333 -83 621 -316 792 -640 92 -173 176 -438
203 -640 32 -229 33 -626 4 -830 -29 -198 -101 -442 -179 -607 -107 -227 -268
-415 -460 -538 -88 -56 -254 -132 -337 -154 -272 -73 -623 -57 -857 38 -158
64 -306 164 -431 290 -147 149 -280 372 -341 574 -77 250 -109 484 -109 793 0
206 3 257 31 469 32 246 145 550 277 745 54 81 153 186 239 256 50 41 95 74
98 74 4 0 19 9 34 19 49 35 220 119 284 140 119 38 248 50 492 43 120 -4 172
-10 260 -32z m-3862 23 c7 -12 17 -1228 19 -2361 2 -742 0 -1005 -9 -1010 -6
-4 -187 -6 -402 -4 l-391 2 -1 1313 c-1 721 -2 1328 -3 1347 -1 27 -7 36 -26
41 -14 4 -123 7 -242 8 l-218 1 0 319 c0 176 3 326 6 335 6 14 71 16 634 16
346 0 631 -3 633 -7z"/>
<path d="M3043 8296 c-59 -19 -163 -79 -194 -113 -76 -82 -169 -256 -198 -368
-61 -242 -76 -356 -76 -575 0 -195 8 -271 51 -470 26 -116 78 -257 129 -349 7
-13 40 -54 73 -91 46 -51 78 -76 135 -104 67 -33 84 -37 168 -40 76 -3 104 1
149 18 75 28 130 67 190 134 132 147 204 358 236 687 44 464 -55 926 -241
1133 -111 123 -285 180 -422 138z"/>
<path d="M6923 3736 c-59 -19 -163 -79 -194 -113 -45 -48 -114 -155 -140 -218
-57 -132 -82 -226 -120 -457 -50 -309 7 -760 131 -1018 36 -76 46 -90 108
-160 46 -51 78 -76 135 -104 70 -34 82 -37 174 -38 146 -2 231 36 333 150 132
147 204 358 236 687 44 464 -55 926 -241 1133 -110 123 -286 180 -422 138z"/>
</g>
</svg>
